<svg width="24" height="24" viewBox="0 0 24 24" fill="none" xmlns="http://www.w3.org/2000/svg">
<g clip-path="url(#clip0_256_84)">
<path fill-rule="evenodd" clip-rule="evenodd" d="M2 4.75C2 3.23122 3.23122 2 4.75 2H16.75C18.2688 2 19.5 3.23122 19.5 4.75V8.95C19.5 9.36421 19.1642 9.7 18.75 9.7C18.3358 9.7 18 9.36421 18 8.95V4.75C18 4.05964 17.4404 3.5 16.75 3.5H4.75C4.05964 3.5 3.5 4.05964 3.5 4.75V18.75C3.5 19.4401 4.05989 20 4.75048 20H13.75C14.1642 20 14.5 20.3358 14.5 20.75C14.5 21.1642 14.1642 21.5 13.75 21.5H4.75048C3.23192 21.5 2 20.269 2 18.75V4.75ZM5 10.75C5 10.3358 5.33579 10 5.75 10H13.75C14.1642 10 14.5 10.3358 14.5 10.75C14.5 11.1642 14.1642 11.5 13.75 11.5H5.75C5.33579 11.5 5 11.1642 5 10.75ZM5.75 14C5.33579 14 5 14.3358 5 14.75C5 15.1642 5.33579 15.5 5.75 15.5H11.75C12.1642 15.5 12.5 15.1642 12.5 14.75C12.5 14.3358 12.1642 14 11.75 14H5.75ZM5 6.75C5 6.33579 5.33579 6 5.75 6H14.75C15.1642 6 15.5 6.33579 15.5 6.75C15.5 7.16421 15.1642 7.5 14.75 7.5H5.75C5.33579 7.5 5 7.16421 5 6.75ZM19.5 13.25C19.5 12.8358 19.1642 12.5 18.75 12.5C18.3358 12.5 18 12.8358 18 13.25V18.5L16.35 16.3C16.1015 15.9686 15.6314 15.9015 15.3 16.15C14.9686 16.3985 14.9015 16.8686 15.15 17.2L18.1396 21.1861C18.1633 21.2193 18.19 21.2509 18.2196 21.2804C18.2823 21.3432 18.3542 21.393 18.4314 21.4291C18.5329 21.4769 18.6418 21.5001 18.75 21.5C18.8582 21.5001 18.9671 21.4769 19.0686 21.4291C19.1455 21.3931 19.2171 21.3436 19.2796 21.2812C19.3095 21.2515 19.3365 21.2196 19.3604 21.1861L22.35 17.2C22.5985 16.8686 22.5314 16.3985 22.2 16.15C21.8686 15.9015 21.3985 15.9686 21.15 16.3L19.5 18.5V13.25Z" fill="#333333"/>
</g>
<defs>
<clipPath id="clip0_256_84">
<rect width="24" height="24" fill="white"/>
</clipPath>
</defs>
</svg>
