<svg width="24" height="24" viewBox="0 0 24 24" fill="none" xmlns="http://www.w3.org/2000/svg">
<path fill-rule="evenodd" clip-rule="evenodd" d="M21 4.5H3C2.72386 4.5 2.5 4.72386 2.5 5V16.5834L4.83153 14.2518C5.20665 13.8767 5.80941 13.8598 6.20497 14.2133L8.65963 16.4068C9.07587 16.7788 9.71605 16.7379 10.0817 16.3161L14.3546 11.3858C15.1693 10.4457 16.6355 10.4696 17.4192 11.4358L21.5 16.4669V5C21.5 4.72386 21.2761 4.5 21 4.5ZM3 3C1.89543 3 1 3.89543 1 5V19.3333C1 20.4379 1.89543 21.3333 3 21.3333H21C22.1046 21.3333 23 20.4379 23 19.3333V5C23 3.89543 22.1046 3 21 3H3ZM10.9167 9.58332C10.9167 10.964 9.79739 12.0833 8.41668 12.0833C7.03596 12.0833 5.91668 10.964 5.91668 9.58332C5.91668 8.20261 7.03596 7.08332 8.41668 7.08332C9.79739 7.08332 10.9167 8.20261 10.9167 9.58332Z" fill="#333333"/>
</svg>
