<svg width="24" height="24" viewBox="0 0 24 24" fill="none" xmlns="http://www.w3.org/2000/svg">
<path fill-rule="evenodd" clip-rule="evenodd" d="M22 5.5H2C1.72386 5.5 1.5 5.72386 1.5 6V18C1.5 18.2761 1.72386 18.5 2 18.5H22C22.2761 18.5 22.5 18.2761 22.5 18V6C22.5 5.72386 22.2761 5.5 22 5.5ZM2 4C0.895431 4 0 4.89543 0 6V18C0 19.1046 0.89543 20 2 20H22C23.1046 20 24 19.1046 24 18V6C24 4.89543 23.1046 4 22 4H2ZM6 15.75C6 15.3358 6.33579 15 6.75 15H17.25C17.6642 15 18 15.3358 18 15.75C18 16.1642 17.6642 16.5 17.25 16.5H6.75C6.33579 16.5 6 16.1642 6 15.75ZM5 8C4.44772 8 4 8.44772 4 9C4 9.55228 4.44772 10 5 10C5.55228 10 6 9.55228 6 9C6 8.44772 5.55228 8 5 8ZM7.5 9C7.5 8.44772 7.94772 8 8.5 8C9.05229 8 9.5 8.44772 9.5 9C9.5 9.55228 9.05229 10 8.5 10C7.94772 10 7.5 9.55228 7.5 9ZM12 8C11.4477 8 11 8.44772 11 9C11 9.55228 11.4477 10 12 10C12.5523 10 13 9.55228 13 9C13 8.44772 12.5523 8 12 8ZM14.5 9C14.5 8.44772 14.9477 8 15.5 8C16.0523 8 16.5 8.44772 16.5 9C16.5 9.55228 16.0523 10 15.5 10C14.9477 10 14.5 9.55228 14.5 9ZM6.75 11C6.19772 11 5.75 11.4477 5.75 12C5.75 12.5523 6.19772 13 6.75 13C7.30228 13 7.75 12.5523 7.75 12C7.75 11.4477 7.30228 11 6.75 11ZM9.25 12C9.25 11.4477 9.69771 11 10.25 11C10.8023 11 11.25 11.4477 11.25 12C11.25 12.5523 10.8023 13 10.25 13C9.69771 13 9.25 12.5523 9.25 12ZM13.75 11C13.1977 11 12.75 11.4477 12.75 12C12.75 12.5523 13.1977 13 13.75 13C14.3023 13 14.75 12.5523 14.75 12C14.75 11.4477 14.3023 11 13.75 11ZM16.25 12C16.25 11.4477 16.6977 11 17.25 11C17.8023 11 18.25 11.4477 18.25 12C18.25 12.5523 17.8023 13 17.25 13C16.6977 13 16.25 12.5523 16.25 12ZM19 8C18.4477 8 18 8.44772 18 9C18 9.55228 18.4477 10 19 10C19.5523 10 20 9.55228 20 9C20 8.44772 19.5523 8 19 8Z" fill="#333333"/>
</svg>
